M48
;Layer_Color=9474304
;FILE_FORMAT=2:4
INCH,LZ
;TYPE=PLATED
T1F00S00C0.0118
T2F00S00C0.0197
T3F00S00C0.0310
T4F00S00C0.0402
T5F00S00C0.0433
T6F00S00C0.0709
T7F00S00C0.1614
%
T01
X014423Y012938
T02
X00904Y015676
X01079Y015656
T03
X00881Y00752
Y00952
X01131
X01253
Y00752
X01131
X01503
X01623
Y00952
X01503
X01873
Y00752
T04
X00207Y00513
X00307
X00407
X00507
X00607
X00707
X00807
X00907
X01007
X01107
X01207
X01307
X01317Y01118
X01217
X01117
X01017
X00917
X00817
X00717
X00617
X00517
X00417
X00317
X00217
T05
X00605Y0171
X013289Y016116
X01575Y0171
X003589Y016116
T06
X007034Y015131
X012797
X016734
X003097
T07
X014766Y015131
X005066
M30
