G04 Layer_Color=8388736*
%FSLAX24Y24*%
%MOIN*%
G70*
G01*
G75*
%ADD30R,0.0630X0.0474*%
%ADD31R,0.0474X0.0277*%
%ADD32C,0.0867*%
%ADD33C,0.0830*%
%ADD34C,0.0678*%
%ADD35R,0.0678X0.0678*%
%ADD36R,0.0474X0.0474*%
%ADD37R,0.0395X0.0277*%
%ADD38C,0.1780*%
D30*
X10790Y15600D02*
D03*
Y16500D02*
D03*
X9040Y15610D02*
D03*
Y16510D02*
D03*
X8120Y3360D02*
D03*
Y4260D02*
D03*
X7090Y3390D02*
D03*
Y4290D02*
D03*
X6090Y3360D02*
D03*
Y4260D02*
D03*
D31*
X4663Y12630D02*
D03*
X5490D02*
D03*
X4663Y12945D02*
D03*
X5490D02*
D03*
X15250Y12938D02*
D03*
X14423D02*
D03*
X15250Y12623D02*
D03*
X14423D02*
D03*
D32*
X3589Y16116D02*
D03*
X6050Y17100D02*
D03*
X13289Y16116D02*
D03*
X15750Y17100D02*
D03*
X7034Y15131D02*
D03*
X3097D02*
D03*
X16734D02*
D03*
X12797D02*
D03*
D33*
X18730Y7520D02*
D03*
X16230Y9520D02*
D03*
Y7520D02*
D03*
X18730Y9520D02*
D03*
X15030Y7520D02*
D03*
X12530Y9520D02*
D03*
Y7520D02*
D03*
X15030Y9520D02*
D03*
X11310Y7520D02*
D03*
X8810Y9520D02*
D03*
Y7520D02*
D03*
X11310Y9520D02*
D03*
D34*
X2070Y5130D02*
D03*
X3070D02*
D03*
X4070D02*
D03*
X5070D02*
D03*
X6070D02*
D03*
X7070D02*
D03*
X8070D02*
D03*
X9070D02*
D03*
X10070D02*
D03*
X11070D02*
D03*
X12070D02*
D03*
X13070D02*
D03*
X3170Y11180D02*
D03*
X4170D02*
D03*
X5170D02*
D03*
X6170D02*
D03*
X7170D02*
D03*
X8170D02*
D03*
X9170D02*
D03*
X10170D02*
D03*
X11170D02*
D03*
X12170D02*
D03*
X13170D02*
D03*
D35*
X2170D02*
D03*
D36*
X10790Y15656D02*
D03*
X9040Y15676D02*
D03*
D37*
X14423Y12938D02*
D03*
D38*
X5066Y15131D02*
D03*
X14766D02*
D03*
M02*
