G04 Layer_Color=32896*
%FSLAX24Y24*%
%MOIN*%
G70*
G01*
G75*
%ADD26C,0.0040*%
%ADD27C,0.0050*%
%ADD29C,0.0100*%
%ADD41C,0.0079*%
%ADD42C,0.0200*%
D26*
X9290Y15900D02*
Y16240D01*
X8790Y15900D02*
Y16240D01*
X11040Y15880D02*
Y16220D01*
X10540Y15880D02*
Y16220D01*
D27*
X8700Y15370D02*
Y16770D01*
X9370D01*
Y15370D02*
Y16770D01*
X8700Y15370D02*
X9370D01*
X10450Y15350D02*
Y16750D01*
X11120D01*
Y15350D02*
Y16750D01*
X10450Y15350D02*
X11120D01*
D29*
X13710Y12620D02*
X13510D01*
X13610D01*
Y12020D01*
X13710D01*
X13510D01*
X12810Y12520D02*
X12910Y12620D01*
X13110D01*
X13210Y12520D01*
Y12120D01*
X13110Y12020D01*
X12910D01*
X12810Y12120D01*
X12610Y12020D02*
X12410D01*
X12510D01*
Y12620D01*
X12610Y12520D01*
X9450Y14910D02*
X9550Y15010D01*
X9750D01*
X9850Y14910D01*
Y14510D01*
X9750Y14410D01*
X9550D01*
X9450Y14510D01*
X9250Y14810D02*
X8850Y14410D01*
X9050Y14610D01*
X8850Y14810D01*
X9250Y14410D01*
X8251D02*
X8650D01*
X8251Y14810D01*
Y14910D01*
X8350Y15010D01*
X8550D01*
X8650Y14910D01*
X11070D02*
X11170Y15010D01*
X11370D01*
X11470Y14910D01*
Y14510D01*
X11370Y14410D01*
X11170D01*
X11070Y14510D01*
X10870Y14810D02*
X10470Y14410D01*
X10670Y14610D01*
X10470Y14810D01*
X10870Y14410D01*
X10270D02*
X10070D01*
X10170D01*
Y15010D01*
X10270Y14910D01*
X16410Y18430D02*
Y17830D01*
X16010D01*
X15410Y18430D02*
X15810D01*
Y17830D01*
X15410D01*
X15810Y18130D02*
X15610D01*
X15210Y18430D02*
Y17830D01*
X14910D01*
X14811Y17930D01*
Y18330D01*
X14910Y18430D01*
X15210D01*
X14611Y17730D02*
X14211D01*
X14011Y17830D02*
Y18430D01*
X13711D01*
X13611Y18330D01*
Y18130D01*
X13711Y18030D01*
X14011D01*
X13811D02*
X13611Y17830D01*
X13011Y18330D02*
X13111Y18430D01*
X13311D01*
X13411Y18330D01*
Y17930D01*
X13311Y17830D01*
X13111D01*
X13011Y17930D01*
Y18130D01*
X13211D01*
X12811Y18430D02*
Y17830D01*
X12511D01*
X12411Y17930D01*
Y18030D01*
X12511Y18130D01*
X12811D01*
X12511D01*
X12411Y18230D01*
Y18330D01*
X12511Y18430D01*
X12811D01*
X12211Y17830D02*
X12011D01*
X12111D01*
Y18430D01*
X12211Y18330D01*
X16810Y3100D02*
Y2500D01*
X16410D01*
X15810Y3100D02*
X16210D01*
Y2500D01*
X15810D01*
X16210Y2800D02*
X16010D01*
X15610Y3100D02*
Y2500D01*
X15310D01*
X15211Y2600D01*
Y3000D01*
X15310Y3100D01*
X15610D01*
X15011Y2400D02*
X14611D01*
X14411Y2500D02*
Y3100D01*
X14111D01*
X14011Y3000D01*
Y2800D01*
X14111Y2700D01*
X14411D01*
X14211D02*
X14011Y2500D01*
X13411Y3000D02*
X13511Y3100D01*
X13711D01*
X13811Y3000D01*
Y2600D01*
X13711Y2500D01*
X13511D01*
X13411Y2600D01*
Y2800D01*
X13611D01*
X13211Y3100D02*
Y2500D01*
X12911D01*
X12811Y2600D01*
Y2700D01*
X12911Y2800D01*
X13211D01*
X12911D01*
X12811Y2900D01*
Y3000D01*
X12911Y3100D01*
X13211D01*
X12211Y2500D02*
X12611D01*
X12211Y2900D01*
Y3000D01*
X12311Y3100D01*
X12511D01*
X12611Y3000D01*
D41*
X13669Y4630D02*
Y5630D01*
X1472D02*
X13669D01*
X1472Y4630D02*
Y5630D01*
Y4630D02*
X2320D01*
X13669D01*
X2570D02*
Y5630D01*
X13769Y10680D02*
Y11680D01*
X1572D02*
X13769D01*
X1572Y10680D02*
Y11680D01*
Y10680D02*
X2420D01*
X13769D01*
X2670D02*
Y11680D01*
D42*
X11650Y1659D02*
Y4059D01*
X8200D02*
X11650D01*
X8200Y1659D02*
X11650D01*
X8200D02*
Y4059D01*
X8190Y16840D02*
Y19240D01*
Y16840D02*
X11640D01*
X8190Y19240D02*
X11640D01*
Y16840D02*
Y19240D01*
M02*
