G04 Layer_Color=128*
%FSLAX24Y24*%
%MOIN*%
G70*
G01*
G75*
%ADD43C,0.0020*%
D43*
X3373Y16116D02*
X3806D01*
X3589Y15899D02*
Y16332D01*
X5833Y17100D02*
X6267D01*
X6050Y16883D02*
Y17317D01*
X18575Y7520D02*
X18885D01*
X18730Y7365D02*
Y7675D01*
X16075Y9520D02*
X16385D01*
X16230Y9365D02*
Y9675D01*
X16075Y7520D02*
X16385D01*
X16230Y7365D02*
Y7675D01*
X18575Y9520D02*
X18885D01*
X18730Y9365D02*
Y9675D01*
X14875Y7520D02*
X15185D01*
X15030Y7365D02*
Y7675D01*
X12375Y9520D02*
X12685D01*
X12530Y9365D02*
Y9675D01*
X12375Y7520D02*
X12685D01*
X12530Y7365D02*
Y7675D01*
X14875Y9520D02*
X15185D01*
X15030Y9365D02*
Y9675D01*
X11155Y7520D02*
X11465D01*
X11310Y7365D02*
Y7675D01*
X8655Y9520D02*
X8965D01*
X8810Y9365D02*
Y9675D01*
X8655Y7520D02*
X8965D01*
X8810Y7365D02*
Y7675D01*
X11155Y9520D02*
X11465D01*
X11310Y9365D02*
Y9675D01*
X1869Y5130D02*
X2271D01*
X2070Y4929D02*
Y5331D01*
X2869Y5130D02*
X3271D01*
X3070Y4929D02*
Y5331D01*
X3869Y5130D02*
X4271D01*
X4070Y4929D02*
Y5331D01*
X4869Y5130D02*
X5271D01*
X5070Y4929D02*
Y5331D01*
X5869Y5130D02*
X6271D01*
X6070Y4929D02*
Y5331D01*
X6869Y5130D02*
X7271D01*
X7070Y4929D02*
Y5331D01*
X7869Y5130D02*
X8271D01*
X8070Y4929D02*
Y5331D01*
X8869Y5130D02*
X9271D01*
X9070Y4929D02*
Y5331D01*
X9869Y5130D02*
X10271D01*
X10070Y4929D02*
Y5331D01*
X10869Y5130D02*
X11271D01*
X11070Y4929D02*
Y5331D01*
X11869Y5130D02*
X12271D01*
X12070Y4929D02*
Y5331D01*
X12869Y5130D02*
X13271D01*
X13070Y4929D02*
Y5331D01*
X1969Y11180D02*
X2371D01*
X2170Y10979D02*
Y11381D01*
X2969Y11180D02*
X3371D01*
X3170Y10979D02*
Y11381D01*
X3969Y11180D02*
X4371D01*
X4170Y10979D02*
Y11381D01*
X4969Y11180D02*
X5371D01*
X5170Y10979D02*
Y11381D01*
X5969Y11180D02*
X6371D01*
X6170Y10979D02*
Y11381D01*
X6969Y11180D02*
X7371D01*
X7170Y10979D02*
Y11381D01*
X7969Y11180D02*
X8371D01*
X8170Y10979D02*
Y11381D01*
X8969Y11180D02*
X9371D01*
X9170Y10979D02*
Y11381D01*
X9969Y11180D02*
X10371D01*
X10170Y10979D02*
Y11381D01*
X10969Y11180D02*
X11371D01*
X11170Y10979D02*
Y11381D01*
X11969Y11180D02*
X12371D01*
X12170Y10979D02*
Y11381D01*
X12969Y11180D02*
X13371D01*
X13170Y10979D02*
Y11381D01*
X13073Y16116D02*
X13506D01*
X13289Y15899D02*
Y16332D01*
X15533Y17100D02*
X15967D01*
X15750Y16883D02*
Y17317D01*
X10692Y15656D02*
X10888D01*
X10790Y15558D02*
Y15755D01*
X8942Y15676D02*
X9138D01*
X9040Y15578D02*
Y15775D01*
X14364Y12938D02*
X14482D01*
X14423Y12879D02*
Y12997D01*
X6680Y15131D02*
X7389D01*
X7034Y14777D02*
Y15486D01*
X2743Y15131D02*
X3452D01*
X3097Y14777D02*
Y15486D01*
X4259Y15131D02*
X5873D01*
X5066Y14324D02*
Y15939D01*
X16380Y15131D02*
X17089D01*
X16734Y14777D02*
Y15486D01*
X12443Y15131D02*
X13152D01*
X12797Y14777D02*
Y15486D01*
X13959Y15131D02*
X15573D01*
X14766Y14324D02*
Y15939D01*
M02*
