G04 Layer_Color=2752767*
%FSLAX24Y24*%
%MOIN*%
G70*
G01*
G75*
%ADD43C,0.0020*%
%ADD44C,0.0027*%
D43*
X3509Y16036D02*
Y16196D01*
X3669D01*
Y16036D01*
X3509D01*
X5970Y17020D02*
Y17180D01*
X6130D01*
Y17020D01*
X5970D01*
X2070Y5050D02*
X1990Y5210D01*
X2150D01*
X2070Y5050D01*
X3070D02*
X2990Y5210D01*
X3150D01*
X3070Y5050D01*
X4070D02*
X3990Y5210D01*
X4150D01*
X4070Y5050D01*
X5070D02*
X4990Y5210D01*
X5150D01*
X5070Y5050D01*
X6070D02*
X5990Y5210D01*
X6150D01*
X6070Y5050D01*
X7070D02*
X6990Y5210D01*
X7150D01*
X7070Y5050D01*
X8070D02*
X7990Y5210D01*
X8150D01*
X8070Y5050D01*
X9070D02*
X8990Y5210D01*
X9150D01*
X9070Y5050D01*
X10070D02*
X9990Y5210D01*
X10150D01*
X10070Y5050D01*
X11070D02*
X10990Y5210D01*
X11150D01*
X11070Y5050D01*
X12070D02*
X11990Y5210D01*
X12150D01*
X12070Y5050D01*
X13070D02*
X12990Y5210D01*
X13150D01*
X13070Y5050D01*
X2170Y11100D02*
X2090Y11260D01*
X2250D01*
X2170Y11100D01*
X3170D02*
X3090Y11260D01*
X3250D01*
X3170Y11100D01*
X4170D02*
X4090Y11260D01*
X4250D01*
X4170Y11100D01*
X5170D02*
X5090Y11260D01*
X5250D01*
X5170Y11100D01*
X6170D02*
X6090Y11260D01*
X6250D01*
X6170Y11100D01*
X7170D02*
X7090Y11260D01*
X7250D01*
X7170Y11100D01*
X8170D02*
X8090Y11260D01*
X8250D01*
X8170Y11100D01*
X9170D02*
X9090Y11260D01*
X9250D01*
X9170Y11100D01*
X10170D02*
X10090Y11260D01*
X10250D01*
X10170Y11100D01*
X11170D02*
X11090Y11260D01*
X11250D01*
X11170Y11100D01*
X12170D02*
X12090Y11260D01*
X12250D01*
X12170Y11100D01*
X13170D02*
X13090Y11260D01*
X13250D01*
X13170Y11100D01*
X13209Y16036D02*
Y16196D01*
X13369D01*
Y16036D01*
X13209D01*
X15670Y17020D02*
Y17180D01*
X15830D01*
Y17020D01*
X15670D01*
X10790Y15576D02*
X10830Y15616D01*
X10870D01*
X10830Y15656D01*
X10870Y15696D01*
X10830D01*
X10790Y15736D01*
X10750Y15696D01*
X10710D01*
X10750Y15656D01*
X10710Y15616D01*
X10750D01*
X10790Y15576D01*
X9040Y15596D02*
X9080Y15636D01*
X9120D01*
X9080Y15676D01*
X9120Y15716D01*
X9080D01*
X9040Y15756D01*
X9000Y15716D01*
X8960D01*
X9000Y15676D01*
X8960Y15636D01*
X9000D01*
X9040Y15596D01*
X14343Y12858D02*
X14383Y12938D01*
X14343Y13018D01*
X14423Y12978D01*
X14503Y13018D01*
X14463Y12938D01*
X14503Y12858D01*
X14423Y12898D01*
X14343Y12858D01*
X6994Y15092D02*
Y15051D01*
X7074D01*
Y15092D01*
X7114D01*
Y15172D01*
X7074D01*
Y15211D01*
X6994D01*
Y15172D01*
X6954D01*
Y15092D01*
X6994D01*
X3057D02*
Y15051D01*
X3137D01*
Y15092D01*
X3177D01*
Y15172D01*
X3137D01*
Y15211D01*
X3057D01*
Y15172D01*
X3017D01*
Y15092D01*
X3057D01*
X4986Y15051D02*
X5026D01*
X5066Y15092D01*
X5106Y15051D01*
X5146D01*
Y15092D01*
X5106Y15131D01*
X5146Y15172D01*
Y15211D01*
X5106D01*
X5066Y15172D01*
X5026Y15211D01*
X4986D01*
Y15172D01*
X5026Y15131D01*
X4986Y15092D01*
Y15051D01*
X16694Y15092D02*
Y15051D01*
X16774D01*
Y15092D01*
X16814D01*
Y15172D01*
X16774D01*
Y15211D01*
X16694D01*
Y15172D01*
X16654D01*
Y15092D01*
X16694D01*
X12757D02*
Y15051D01*
X12837D01*
Y15092D01*
X12877D01*
Y15172D01*
X12837D01*
Y15211D01*
X12757D01*
Y15172D01*
X12717D01*
Y15092D01*
X12757D01*
X14686Y15051D02*
X14726D01*
X14766Y15092D01*
X14806Y15051D01*
X14846D01*
Y15092D01*
X14806Y15131D01*
X14846Y15172D01*
Y15211D01*
X14806D01*
X14766Y15172D01*
X14726Y15211D01*
X14686D01*
Y15172D01*
X14726Y15131D01*
X14686Y15092D01*
Y15051D01*
D44*
X18810Y7520D02*
G03*
X18810Y7520I-80J0D01*
G01*
X16310Y9520D02*
G03*
X16310Y9520I-80J0D01*
G01*
Y7520D02*
G03*
X16310Y7520I-80J0D01*
G01*
X18810Y9520D02*
G03*
X18810Y9520I-80J0D01*
G01*
X15110Y7520D02*
G03*
X15110Y7520I-80J0D01*
G01*
X12610Y9520D02*
G03*
X12610Y9520I-80J0D01*
G01*
Y7520D02*
G03*
X12610Y7520I-80J0D01*
G01*
X15110Y9520D02*
G03*
X15110Y9520I-80J0D01*
G01*
X11390Y7520D02*
G03*
X11390Y7520I-80J0D01*
G01*
X8890Y9520D02*
G03*
X8890Y9520I-80J0D01*
G01*
Y7520D02*
G03*
X8890Y7520I-80J0D01*
G01*
X11390Y9520D02*
G03*
X11390Y9520I-80J0D01*
G01*
M02*
