G04 Layer_Color=65535*
%FSLAX24Y24*%
%MOIN*%
G70*
G01*
G75*
%ADD24C,0.0060*%
%ADD25C,0.0118*%
%ADD26C,0.0040*%
%ADD27C,0.0050*%
%ADD28C,0.0070*%
%ADD29C,0.0100*%
D24*
X17980Y8470D02*
G03*
X17980Y8470I-500J0D01*
G01*
X14280D02*
G03*
X14280Y8470I-500J0D01*
G01*
X10560D02*
G03*
X10560Y8470I-500J0D01*
G01*
X18580Y8070D02*
Y9020D01*
X16730Y9520D02*
X18270D01*
X16330Y8070D02*
Y9020D01*
X16730Y7520D02*
X18280D01*
X14880Y8070D02*
Y9020D01*
X13030Y9520D02*
X14570D01*
X12630Y8070D02*
Y9020D01*
X13030Y7520D02*
X14580D01*
X11160Y8070D02*
Y9020D01*
X9310Y9520D02*
X10850D01*
X8910Y8070D02*
Y9020D01*
X9310Y7520D02*
X10860D01*
D25*
X7550Y12600D02*
Y12797D01*
X2550Y12600D02*
Y12876D01*
Y17246D02*
Y17600D01*
X7550Y17285D02*
Y17600D01*
X7196D02*
X7550D01*
X2550D02*
X2944D01*
X7274Y12600D02*
X7550D01*
X2550D02*
X2904D01*
X17250D02*
Y12797D01*
X12250Y12600D02*
Y12876D01*
Y17246D02*
Y17600D01*
X17250Y17285D02*
Y17600D01*
X16896D02*
X17250D01*
X12250D02*
X12644D01*
X16974Y12600D02*
X17250D01*
X12250D02*
X12604D01*
D26*
X11040Y15880D02*
Y16220D01*
X10540Y15880D02*
Y16220D01*
X9290Y15890D02*
Y16230D01*
X8790Y15890D02*
Y16230D01*
X8370Y3640D02*
Y3980D01*
X7870Y3640D02*
Y3980D01*
X7340Y3670D02*
Y4010D01*
X6840Y3670D02*
Y4010D01*
X6340Y3640D02*
Y3980D01*
X5840Y3640D02*
Y3980D01*
D27*
X10450Y15350D02*
Y16750D01*
Y15350D02*
X11120D01*
Y16750D01*
X10450D02*
X11120D01*
X8700Y15360D02*
Y16760D01*
Y15360D02*
X9370D01*
Y16760D01*
X8700D02*
X9370D01*
X7790Y3110D02*
X8460D01*
X7790D02*
Y4510D01*
X8460D01*
Y3110D02*
Y4510D01*
X6760Y3140D02*
X7430D01*
X6760D02*
Y4540D01*
X7430D01*
Y3140D02*
Y4540D01*
X5760Y3110D02*
X6430D01*
X5760D02*
Y4510D01*
X6430D01*
Y3110D02*
Y4510D01*
D28*
X16330Y9660D02*
X16340Y9670D01*
X12630Y9660D02*
X12640Y9670D01*
X8910Y9660D02*
X8920Y9670D01*
D29*
X10270Y17080D02*
Y17680D01*
X10570D01*
X10670Y17580D01*
Y17380D01*
X10570Y17280D01*
X10270D01*
X10470D02*
X10670Y17080D01*
X11270Y17680D02*
X10870D01*
Y17380D01*
X11070Y17480D01*
X11170D01*
X11270Y17380D01*
Y17180D01*
X11170Y17080D01*
X10970D01*
X10870Y17180D01*
X8560Y17080D02*
Y17680D01*
X8860D01*
X8960Y17580D01*
Y17380D01*
X8860Y17280D01*
X8560D01*
X8760D02*
X8960Y17080D01*
X9160Y17580D02*
X9260Y17680D01*
X9460D01*
X9560Y17580D01*
Y17480D01*
X9460Y17380D01*
X9360D01*
X9460D01*
X9560Y17280D01*
Y17180D01*
X9460Y17080D01*
X9260D01*
X9160Y17180D01*
X4523Y13980D02*
Y13380D01*
X4923D01*
X5523Y13980D02*
X5123D01*
Y13380D01*
X5523D01*
X5123Y13680D02*
X5323D01*
X5723Y13980D02*
Y13380D01*
X6023D01*
X6123Y13480D01*
Y13880D01*
X6023Y13980D01*
X5723D01*
X6323Y13380D02*
X6523D01*
X6423D01*
Y13980D01*
X6323Y13880D01*
X14290Y13988D02*
Y13388D01*
X14690D01*
X15290Y13988D02*
X14890D01*
Y13388D01*
X15290D01*
X14890Y13688D02*
X15090D01*
X15490Y13988D02*
Y13388D01*
X15790D01*
X15889Y13488D01*
Y13888D01*
X15790Y13988D01*
X15490D01*
X16489Y13388D02*
X16089D01*
X16489Y13788D01*
Y13888D01*
X16389Y13988D01*
X16189D01*
X16089Y13888D01*
X9770Y10780D02*
X9670Y10880D01*
X9470D01*
X9370Y10780D01*
Y10680D01*
X9470Y10580D01*
X9670D01*
X9770Y10480D01*
Y10380D01*
X9670Y10280D01*
X9470D01*
X9370Y10380D01*
X9970Y10880D02*
Y10280D01*
X10170Y10480D01*
X10370Y10280D01*
Y10880D01*
X10570Y10280D02*
X10770D01*
X10670D01*
Y10880D01*
X10570Y10780D01*
X13380D02*
X13280Y10880D01*
X13080D01*
X12980Y10780D01*
Y10680D01*
X13080Y10580D01*
X13280D01*
X13380Y10480D01*
Y10380D01*
X13280Y10280D01*
X13080D01*
X12980Y10380D01*
X13580Y10880D02*
Y10280D01*
X13780Y10480D01*
X13980Y10280D01*
Y10880D01*
X14579Y10280D02*
X14180D01*
X14579Y10680D01*
Y10780D01*
X14480Y10880D01*
X14280D01*
X14180Y10780D01*
X17050D02*
X16950Y10880D01*
X16750D01*
X16650Y10780D01*
Y10680D01*
X16750Y10580D01*
X16950D01*
X17050Y10480D01*
Y10380D01*
X16950Y10280D01*
X16750D01*
X16650Y10380D01*
X17250Y10880D02*
Y10280D01*
X17450Y10480D01*
X17650Y10280D01*
Y10880D01*
X17850Y10780D02*
X17950Y10880D01*
X18150D01*
X18249Y10780D01*
Y10680D01*
X18150Y10580D01*
X18050D01*
X18150D01*
X18249Y10480D01*
Y10380D01*
X18150Y10280D01*
X17950D01*
X17850Y10380D01*
X11740Y18930D02*
X12140Y18530D01*
X11740D02*
X12140Y18930D01*
X11740Y18730D02*
X12140D01*
X11940Y18530D02*
Y18930D01*
X12340Y18430D02*
X12540D01*
X12440D01*
Y19030D01*
X12340Y18930D01*
X2040D02*
X2440Y18530D01*
X2040D02*
X2440Y18930D01*
X2040Y18730D02*
X2440D01*
X2240Y18530D02*
Y18930D01*
X3040Y18430D02*
X2640D01*
X3040Y18830D01*
Y18930D01*
X2940Y19030D01*
X2740D01*
X2640Y18930D01*
X5630Y2180D02*
Y2780D01*
X5930D01*
X6030Y2680D01*
Y2480D01*
X5930Y2380D01*
X5630D01*
X5830D02*
X6030Y2180D01*
X6230D02*
X6430D01*
X6330D01*
Y2780D01*
X6230Y2680D01*
X6600Y2180D02*
Y2780D01*
X6900D01*
X7000Y2680D01*
Y2480D01*
X6900Y2380D01*
X6600D01*
X6800D02*
X7000Y2180D01*
X7600D02*
X7200D01*
X7600Y2580D01*
Y2680D01*
X7500Y2780D01*
X7300D01*
X7200Y2680D01*
X7800Y2180D02*
Y2780D01*
X8100D01*
X8200Y2680D01*
Y2480D01*
X8100Y2380D01*
X7800D01*
X8000D02*
X8200Y2180D01*
X8700D02*
Y2780D01*
X8400Y2480D01*
X8800D01*
M02*
